<svg width="142" height="150" viewBox="0 0 142 150" fill="none" xmlns="http://www.w3.org/2000/svg">
<path d="M70.2605 128.125C70.7536 128.125 71.3206 127.995 71.9615 127.734C72.6025 127.474 73.1202 127.135 73.5147 126.719L123.363 73.9063C124.645 72.5521 125.606 71.0068 126.247 69.2703C126.888 67.5349 127.208 65.799 127.208 64.0625C127.208 62.2917 126.888 60.5208 126.247 58.75C125.606 56.9792 124.645 55.4167 123.363 54.0625L96.7376 25.9375C95.4557 24.5833 93.9765 23.5677 92.3001 22.8906C90.6237 22.2135 88.9473 21.875 87.2709 21.875C85.6271 21.875 83.9837 22.2135 82.3409 22.8906C80.697 23.5677 79.2341 24.5833 77.9522 25.9375L75.2897 28.75L87.2709 41.5625C88.5529 43.0208 89.6869 44.7135 90.673 46.6406C91.6591 48.5677 92.1522 50.6771 92.1522 52.9688C92.1522 56.9271 90.6977 60.4167 87.7886 63.4375C84.8796 66.4583 81.5515 67.9688 77.8043 67.9688C75.339 67.9688 73.2928 67.5781 71.6657 66.7969C70.0386 66.0156 68.5501 64.9042 67.2001 63.4625L56.3563 52.0313L29.5834 80.3125C29.0904 80.8333 28.7452 81.3818 28.548 81.9578C28.3508 82.5328 28.2522 83.1495 28.2522 83.8078C28.2522 85.1234 28.6713 86.224 29.5095 87.1094C30.3477 87.9948 31.3915 88.4375 32.6409 88.4375C33.2651 88.4375 33.8484 88.2813 34.3907 87.9688C34.9331 87.6563 35.4015 87.2917 35.7959 86.875L56.2084 65.3125L62.4209 71.875L42.1563 93.2813C41.6633 93.8021 41.3181 94.375 41.1209 95C40.9237 95.625 40.8251 96.25 40.8251 96.875C40.8251 98.125 41.2688 99.2188 42.1563 100.156C43.0438 101.094 44.0793 101.563 45.2626 101.563C45.8543 101.563 46.4213 101.432 46.9636 101.172C47.506 100.911 47.9744 100.573 48.3688 100.156L68.7813 78.5938L74.9938 85.1563L54.7293 106.563C54.3348 106.979 54.0143 107.517 53.7678 108.177C53.5213 108.837 53.398 109.497 53.398 110.156C53.398 111.406 53.8418 112.5 54.7293 113.438C55.6168 114.375 56.6522 114.844 57.8355 114.844C58.4272 114.844 58.9695 114.74 59.4626 114.531C59.9556 114.323 60.4487 113.958 60.9418 113.438L81.3543 91.875L87.5668 98.4375L67.1543 120C66.6612 120.521 66.3161 121.094 66.1188 121.719C65.9216 122.344 65.823 122.917 65.823 123.438C65.823 124.896 66.2175 126.042 67.0063 126.875C67.7952 127.708 68.88 128.125 70.2605 128.125ZM70.2694 137.5C67.0093 137.5 64.0973 136.224 61.5334 133.672C58.9695 131.12 57.4411 127.963 56.948 124.2C53.5952 123.692 50.7848 122.24 48.5168 119.844C46.2487 117.448 44.8681 114.479 44.3751 110.938C41.0223 110.417 38.2365 108.932 36.0178 106.484C33.799 104.036 32.4431 101.094 31.9501 97.6563C28.3015 97.1354 25.2938 95.5729 22.9272 92.9688C20.5605 90.3646 19.3772 87.2396 19.3772 83.5938C19.3772 81.8229 19.7085 80.0495 20.3712 78.2734C21.0348 76.4974 21.9854 74.9375 23.223 73.5938L56.3563 38.5938L72.6272 55.7813C73.4161 56.6146 74.2705 57.2656 75.1906 57.7344C76.1116 58.2031 77.0321 58.4375 77.9522 58.4375C79.2341 58.4375 80.4421 57.8385 81.5761 56.6406C82.7102 55.4427 83.2772 54.1589 83.2772 52.7891C83.2772 52.1797 83.1046 51.4844 82.7595 50.7031C82.4143 49.9219 81.8473 49.1146 81.0584 48.2813L59.9063 25.9375C58.6244 24.5833 57.1452 23.5677 55.4688 22.8906C53.7924 22.2135 52.1161 21.875 50.4397 21.875C48.7958 21.875 47.1525 22.2135 45.5096 22.8906C43.8658 23.5677 42.4058 24.576 41.1298 25.9156L18.6376 49.6875C17.257 51.1458 16.2956 52.6823 15.7532 54.2969C15.2108 55.9115 14.8904 57.7344 14.7917 59.7656C14.6931 61.7969 15.0629 63.776 15.9011 65.7031C16.7393 67.6302 17.7501 69.375 18.9334 70.9375L12.573 77.6563C10.6008 75.3646 8.99835 72.6042 7.76571 69.375C6.53307 66.1458 5.91675 62.8646 5.91675 59.5313C5.91675 56.4063 6.48376 53.4115 7.61779 50.5469C8.75182 47.6823 10.3542 45.1563 12.4251 42.9688L34.7605 19.375C36.9299 17.0833 39.3849 15.3906 42.1253 14.2969C44.8667 13.2031 47.6771 12.6562 50.5565 12.6562C53.437 12.6562 56.2331 13.2031 58.9449 14.2969C61.6567 15.3906 64.0973 17.0833 66.2668 19.375L68.9293 22.1875L71.5918 19.375C73.7612 17.0833 76.2161 15.3906 78.9565 14.2969C81.6979 13.2031 84.5083 12.6562 87.3878 12.6562C90.2682 12.6562 93.0643 13.2031 95.7761 14.2969C98.4879 15.3906 100.929 17.0833 103.098 19.375L129.575 47.3438C131.745 49.6354 133.372 52.2412 134.456 55.1609C135.541 58.0818 136.083 61.0505 136.083 64.0672C136.083 67.0849 135.541 70.026 134.456 72.8906C133.372 75.7552 131.745 78.3333 129.575 80.625L79.7272 133.281C78.4452 134.635 76.9892 135.677 75.3592 136.406C73.7292 137.135 72.0325 137.5 70.2694 137.5Z" fill="#2A76E8"/>
</svg>
