<svg width="131" height="111" viewBox="0 0 131 111" fill="none" xmlns="http://www.w3.org/2000/svg">
<path d="M0 59.4344V51.1604H12.425C13.5097 39.1173 18.5882 28.8438 27.6604 20.3401C36.7326 11.8363 47.7278 7.0788 60.6458 6.06755V0H69.5208V6.06755C82.5375 7.0788 93.5819 11.8363 102.654 20.3401C111.726 28.8438 116.805 39.1173 117.89 51.1604H130.167V59.4344H0ZM21.1521 51.1604H109.015C107.93 40.6801 103.221 31.8776 94.8885 24.7528C86.5559 17.6281 76.6208 14.0657 65.0833 14.0657C53.6444 14.0657 43.734 17.6281 35.3521 24.7528C26.9701 31.8776 22.2368 40.6801 21.1521 51.1604ZM78.5437 59.4344H39.9375V96.6671H73.6625C75.9305 96.6671 78.1 96.3223 80.1708 95.6328C82.2417 94.9433 84.1153 93.9091 85.7917 92.5301L111.677 71.1558C110.297 70.0526 108.867 69.1792 107.387 68.5357C105.908 67.8922 104.331 67.4785 102.654 67.2946C100.978 67.1107 99.3753 67.2257 97.8469 67.6394C96.3184 68.0531 94.8639 68.7655 93.4833 69.7768L77.8042 81.4982H56.2083V73.2243H74.8458L81.65 67.9841C82.6361 67.2486 83.2524 66.4212 83.499 65.5019C83.7455 64.5826 83.7208 63.6633 83.425 62.7439C83.1292 61.8246 82.5621 61.0432 81.724 60.3997C80.8858 59.7561 79.8257 59.4344 78.5437 59.4344ZM31.0625 59.4344H14.7917V102.183H31.0625V59.4344ZM31.0625 110.457H14.7917C12.425 110.457 10.3542 109.63 8.57917 107.975C6.80417 106.32 5.91667 104.389 5.91667 102.183V59.4344C5.91667 57.228 6.80417 55.2974 8.57917 53.6426C10.3542 51.9878 12.425 51.1604 14.7917 51.1604H78.5437C86.5312 51.1604 94.1243 52.4935 101.323 55.1595C108.522 57.8256 114.734 61.9166 119.96 67.4325L124.25 71.8453L91.7083 98.7355C89.243 100.758 86.4326 102.298 83.2771 103.355C80.1215 104.412 76.9167 104.941 73.6625 104.941H39.3458C38.6556 106.504 37.5708 107.814 36.0917 108.871C34.6125 109.928 32.9361 110.457 31.0625 110.457Z" fill="#2A76E8"/>
</svg>
